<svg aria-roledescription="mindmap" role="graphics-document document" viewBox="5 5 935.3726806640625 606.5781860351562" style="max-width: 100%;" xmlns="http://www.w3.org/2000/svg" width="100%" id="graph-div" height="100%" xmlns:xlink="http://www.w3.org/1999/xlink"><style>@import url("https://cdnjs.cloudflare.com/ajax/libs/font-awesome/6.4.0/css/all.min.css");'</style><style>#graph-div{font-family:"trebuchet ms",verdana,arial,sans-serif;font-size:16px;fill:#ccc;}#graph-div .error-icon{fill:#a44141;}#graph-div .error-text{fill:#ddd;stroke:#ddd;}#graph-div .edge-thickness-normal{stroke-width:2px;}#graph-div .edge-thickness-thick{stroke-width:3.5px;}#graph-div .edge-pattern-solid{stroke-dasharray:0;}#graph-div .edge-pattern-dashed{stroke-dasharray:3;}#graph-div .edge-pattern-dotted{stroke-dasharray:2;}#graph-div .marker{fill:lightgrey;stroke:lightgrey;}#graph-div .marker.cross{stroke:lightgrey;}#graph-div svg{font-family:"trebuchet ms",verdana,arial,sans-serif;font-size:16px;}#graph-div .edge{stroke-width:3;}#graph-div .section--1 rect,#graph-div .section--1 path,#graph-div .section--1 circle,#graph-div .section--1 polygon,#graph-div .section--1 path{fill:#1f2020;}#graph-div .section--1 text{fill:lightgrey;}#graph-div .node-icon--1{font-size:40px;color:lightgrey;}#graph-div .section-edge--1{stroke:#1f2020;}#graph-div .edge-depth--1{stroke-width:17;}#graph-div .section--1 line{stroke:#e0dfdf;stroke-width:3;}#graph-div .disabled,#graph-div .disabled circle,#graph-div .disabled text{fill:lightgray;}#graph-div .disabled text{fill:#efefef;}#graph-div .section-0 rect,#graph-div .section-0 path,#graph-div .section-0 circle,#graph-div .section-0 polygon,#graph-div .section-0 path{fill:#0b0000;}#graph-div .section-0 text{fill:lightgrey;}#graph-div .node-icon-0{font-size:40px;color:lightgrey;}#graph-div .section-edge-0{stroke:#0b0000;}#graph-div .edge-depth-0{stroke-width:14;}#graph-div .section-0 line{stroke:#f4ffff;stroke-width:3;}#graph-div .disabled,#graph-div .disabled circle,#graph-div .disabled text{fill:lightgray;}#graph-div .disabled text{fill:#efefef;}#graph-div .section-1 rect,#graph-div .section-1 path,#graph-div .section-1 circle,#graph-div .section-1 polygon,#graph-div .section-1 path{fill:#4d1037;}#graph-div .section-1 text{fill:lightgrey;}#graph-div .node-icon-1{font-size:40px;color:lightgrey;}#graph-div .section-edge-1{stroke:#4d1037;}#graph-div .edge-depth-1{stroke-width:11;}#graph-div .section-1 line{stroke:#b2efc8;stroke-width:3;}#graph-div .disabled,#graph-div .disabled circle,#graph-div .disabled text{fill:lightgray;}#graph-div .disabled text{fill:#efefef;}#graph-div .section-2 rect,#graph-div .section-2 path,#graph-div .section-2 circle,#graph-div .section-2 polygon,#graph-div .section-2 path{fill:#3f5258;}#graph-div .section-2 text{fill:lightgrey;}#graph-div .node-icon-2{font-size:40px;color:lightgrey;}#graph-div .section-edge-2{stroke:#3f5258;}#graph-div .edge-depth-2{stroke-width:8;}#graph-div .section-2 line{stroke:#c0ada7;stroke-width:3;}#graph-div .disabled,#graph-div .disabled circle,#graph-div .disabled text{fill:lightgray;}#graph-div .disabled text{fill:#efefef;}#graph-div .section-3 rect,#graph-div .section-3 path,#graph-div .section-3 circle,#graph-div .section-3 polygon,#graph-div .section-3 path{fill:#4f2f1b;}#graph-div .section-3 text{fill:lightgrey;}#graph-div .node-icon-3{font-size:40px;color:lightgrey;}#graph-div .section-edge-3{stroke:#4f2f1b;}#graph-div .edge-depth-3{stroke-width:5;}#graph-div .section-3 line{stroke:#b0d0e4;stroke-width:3;}#graph-div .disabled,#graph-div .disabled circle,#graph-div .disabled text{fill:lightgray;}#graph-div .disabled text{fill:#efefef;}#graph-div .section-4 rect,#graph-div .section-4 path,#graph-div .section-4 circle,#graph-div .section-4 polygon,#graph-div .section-4 path{fill:#6e0a0a;}#graph-div .section-4 text{fill:lightgrey;}#graph-div .node-icon-4{font-size:40px;color:lightgrey;}#graph-div .section-edge-4{stroke:#6e0a0a;}#graph-div .edge-depth-4{stroke-width:2;}#graph-div .section-4 line{stroke:#91f5f5;stroke-width:3;}#graph-div .disabled,#graph-div .disabled circle,#graph-div .disabled text{fill:lightgray;}#graph-div .disabled text{fill:#efefef;}#graph-div .section-5 rect,#graph-div .section-5 path,#graph-div .section-5 circle,#graph-div .section-5 polygon,#graph-div .section-5 path{fill:#3b0048;}#graph-div .section-5 text{fill:lightgrey;}#graph-div .node-icon-5{font-size:40px;color:lightgrey;}#graph-div .section-edge-5{stroke:#3b0048;}#graph-div .edge-depth-5{stroke-width:-1;}#graph-div .section-5 line{stroke:#c4ffb7;stroke-width:3;}#graph-div .disabled,#graph-div .disabled circle,#graph-div .disabled text{fill:lightgray;}#graph-div .disabled text{fill:#efefef;}#graph-div .section-6 rect,#graph-div .section-6 path,#graph-div .section-6 circle,#graph-div .section-6 polygon,#graph-div .section-6 path{fill:#995a01;}#graph-div .section-6 text{fill:lightgrey;}#graph-div .node-icon-6{font-size:40px;color:lightgrey;}#graph-div .section-edge-6{stroke:#995a01;}#graph-div .edge-depth-6{stroke-width:-4;}#graph-div .section-6 line{stroke:#66a5fe;stroke-width:3;}#graph-div .disabled,#graph-div .disabled circle,#graph-div .disabled text{fill:lightgray;}#graph-div .disabled text{fill:#efefef;}#graph-div .section-7 rect,#graph-div .section-7 path,#graph-div .section-7 circle,#graph-div .section-7 polygon,#graph-div .section-7 path{fill:#154706;}#graph-div .section-7 text{fill:lightgrey;}#graph-div .node-icon-7{font-size:40px;color:lightgrey;}#graph-div .section-edge-7{stroke:#154706;}#graph-div .edge-depth-7{stroke-width:-7;}#graph-div .section-7 line{stroke:#eab8f9;stroke-width:3;}#graph-div .disabled,#graph-div .disabled circle,#graph-div .disabled text{fill:lightgray;}#graph-div .disabled text{fill:#efefef;}#graph-div .section-8 rect,#graph-div .section-8 path,#graph-div .section-8 circle,#graph-div .section-8 polygon,#graph-div .section-8 path{fill:#161722;}#graph-div .section-8 text{fill:lightgrey;}#graph-div .node-icon-8{font-size:40px;color:lightgrey;}#graph-div .section-edge-8{stroke:#161722;}#graph-div .edge-depth-8{stroke-width:-10;}#graph-div .section-8 line{stroke:#e9e8dd;stroke-width:3;}#graph-div .disabled,#graph-div .disabled circle,#graph-div .disabled text{fill:lightgray;}#graph-div .disabled text{fill:#efefef;}#graph-div .section-9 rect,#graph-div .section-9 path,#graph-div .section-9 circle,#graph-div .section-9 polygon,#graph-div .section-9 path{fill:#00296f;}#graph-div .section-9 text{fill:lightgrey;}#graph-div .node-icon-9{font-size:40px;color:lightgrey;}#graph-div .section-edge-9{stroke:#00296f;}#graph-div .edge-depth-9{stroke-width:-13;}#graph-div .section-9 line{stroke:#ffd690;stroke-width:3;}#graph-div .disabled,#graph-div .disabled circle,#graph-div .disabled text{fill:lightgray;}#graph-div .disabled text{fill:#efefef;}#graph-div .section-10 rect,#graph-div .section-10 path,#graph-div .section-10 circle,#graph-div .section-10 polygon,#graph-div .section-10 path{fill:#01629c;}#graph-div .section-10 text{fill:lightgrey;}#graph-div .node-icon-10{font-size:40px;color:lightgrey;}#graph-div .section-edge-10{stroke:#01629c;}#graph-div .edge-depth-10{stroke-width:-16;}#graph-div .section-10 line{stroke:#fe9d63;stroke-width:3;}#graph-div .disabled,#graph-div .disabled circle,#graph-div .disabled text{fill:lightgray;}#graph-div .disabled text{fill:#efefef;}#graph-div .section-root rect,#graph-div .section-root path,#graph-div .section-root circle,#graph-div .section-root polygon{fill:hsl(180, 1.5873015873%, 48.3529411765%);}#graph-div .section-root text{fill:#2c2c2c;}#graph-div .icon-container{height:100%;display:flex;justify-content:center;align-items:center;}#graph-div .edge{fill:none;}#graph-div .mindmap-node-label{dy:1em;alignment-baseline:middle;text-anchor:middle;dominant-baseline:middle;text-align:center;}#graph-div :root{--mermaid-font-family:"trebuchet ms",verdana,arial,sans-serif;}</style><g></g><g></g><g class="mindmap-edges"><path class="edge section-edge-0 edge-depth-2" d="M 574.285777735132,506.21879682472417 L 541.5094061098845,531.290872858376 L508.73303448463696,556.3629488920279"></path><path class="edge section-edge-0 edge-depth-2" d="M 592.7148316253575,510.61651572260644 L 607.0703890898621,540.3878205505936 L621.4259465543668,570.1591253785807"></path><path class="edge section-edge-0 edge-depth-2" d="M 601.0629266869494,499.1268475334807 L 644.2990537274192,505.00754621289354 L687.535180767889,510.8882448923064"></path><path class="edge section-edge-0 edge-depth-1" d="M 546.3575819412165,420.1686626858331 L 562.8297712102394,451.9770034326441 L579.3019604792623,483.7853441794551"></path><path class="edge section-edge-0 edge-depth-0" d="M 505.78746794910404,328.6402156190394 L 519.6577394537508,360.8558265419183 L533.5280109583975,393.0714374647972"></path><path class="edge section-edge-1 edge-depth-2" d="M 806.1164488716712,389.9885871392206 L 740.0367897872931,407.6103237377075 L673.9571307029149,425.2320603361944"></path><path class="edge section-edge-1 edge-depth-1" d="M 670.5503457288075,342.05891176033265 L 738.3839895214325,361.9780952752068 L806.2176333140574,381.8972787900809"></path><path class="edge section-edge-1 edge-depth-1" d="M 670.8777791178081,334.94663049157873 L 750.6872355336318,319.29886065786286 L830.4966919494555,303.651090824147"></path><path class="edge section-edge-1 edge-depth-0" d="M 514.6963191113778,317.04383694045185 L 578.0068739869209,326.34777435475553 L641.3174288624641,335.6517117690592"></path><path class="edge section-edge-2 edge-depth-1" d="M 651.4386494197104,253.75276114364453 L 712.944658319989,235.10956081865817 L774.4506672202676,216.46636049367174"></path><path class="edge section-edge-2 edge-depth-0" d="M 513.7168592337836,309.1297832006216 L 568.4696616061797,286.48342430138655 L623.2224639785758,263.8370654021515"></path><path class="edge section-edge-3 edge-depth-1" d="M 387.41010917311746,408.4045759722365 L 385.5769314112139,442.4608518487403 L383.7437536493104,476.51712772524405"></path><path class="edge section-edge-3 edge-depth-2" d="M 156.0745606886859,459.46077412109247 L 138.57085787316356,492.09884684763847 L121.06715505764123,524.7369195741845"></path><path class="edge section-edge-3 edge-depth-1" d="M 373.61310890336756,396.8533639862467 L 275.69011377401114,419.8340211798271 L177.76711864465474,442.81467837340756"></path><path class="edge section-edge-3 edge-depth-0" d="M 487.58873902088163,323.4954765299414 L 444.0360376868712,354.1445820147966 L400.4833363528608,384.79368749965175"></path><path class="edge section-edge-4 edge-depth-1" d="M 314.929075742638,276.2419077619213 L 280.3825228592975,250.62272816403015 L245.835969975957,225.00354856613902"></path><path class="edge section-edge-4 edge-depth-1" d="M 314.19316985355,293.02284215745965 L 275.13988892523275,316.9903698364236 L236.08660799691552,340.9578975153876"></path><path class="edge section-edge-4 edge-depth-1" d="M 311.9799433409786,284.91010815993747 L 217.59620731346956,283.23123504753846 L123.21247128596056,281.55236193513946"></path><path class="edge section-edge-4 edge-depth-0" d="M 485.0720904359565,312.32431273513674 L 413.4166428941631,300.01989318343976 L341.76119535236967,287.7154736317428"></path><path class="edge section-edge-5 edge-depth-2" d="M 510.3586572672727,107.26069007586497 L 504.9242213074717,77.46255144989308 L499.48978534767076,47.6644128239212"></path><path class="edge section-edge-5 edge-depth-1" d="M 509.5081534103648,201.6051745411284 L 510.94559555286287,169.30381721670054 L512.3830376953609,137.00245989227267"></path><path class="edge section-edge-5 edge-depth-3" d="M 708.775903457507,95.90109637316338 L 751.8621598172688,87.79644864622585 L794.9484161770308,79.69180091928833"></path><path class="edge section-edge-5 edge-depth-2" d="M 632.4753905373205,162.696665328106 L 658.0566491602058,136.0916359723537 L683.637907783091,109.48660661660142"></path><path class="edge section-edge-5 edge-depth-1" d="M 522.8609626242601,211.25658158690342 L 565.460082050569,195.04980346766368 L608.0592014768779,178.84302534842394"></path><path class="edge section-edge-5 edge-depth-1" d="M 494.933613306939,210.97106573408183 L 449.97922140155896,192.80763790205586 L405.02482949617894,174.64421007002989"></path><path class="edge section-edge-5 edge-depth-0" d="M 501.221547241468,299.92521704072465 L 504.34850677693305,265.72662419007395 L507.4754663123981,231.5280313394232"></path></g><g class="mindmap-nodes"><g transform="translate(455.62915241138705, 296.9550918465329)" class="mindmap-node section--1 section-root"><g transform="translate(44.2265625, 17.9078125)"><circle r="44.2265625" class="node-bkg node-circle" id="node-0"></circle></g><g transform="translate(44.2265625, 5)" text-anchor="middle" dominant-baseline="middle" alignment-baseline="middle" dy="1em"><g><rect class="background"></rect><text y="-10.1"><tspan dy="1.1em" y="-0.1em" x="0" class="text-outer-tspan"><tspan font-weight="normal" class="text-inner-tspan" font-style="normal">HERMES</tspan></tspan></text></g></g></g><g transform="translate(512.7332014961145, 388.94093623730373)" class="mindmap-node section-0"><g><path d="M0 30.815624999999997 v-25.815624999999997 q0,-5 5,-5 h43.453125 q5,0 5,5 v30.815624999999997 H0 Z" class="node-bkg node-no-border" id="node-1"></path><line y2="35.815625" x2="53.453125" y1="35.815625" x1="0" class="node-line-0"></line></g><g transform="translate(26.7265625, 5)" text-anchor="middle" dominant-baseline="middle" alignment-baseline="middle" dy="1em"><g><rect class="background"></rect><text y="-10.1"><tspan dy="1.1em" y="-0.1em" x="0" class="text-outer-tspan"><tspan font-weight="normal" class="text-inner-tspan" font-style="normal">Rust</tspan></tspan></text></g></g></g><g transform="translate(563.7466534243644, 479.1974456279845)" class="mindmap-node section-0"><g><path d="M0 30.815624999999997 v-25.815624999999997 q0,-5 5,-5 h34.90625 q5,0 5,5 v30.815624999999997 H0 Z" class="node-bkg node-no-border" id="node-2"></path><line y2="35.815625" x2="44.90625" y1="35.815625" x1="0" class="node-line-0"></line></g><g transform="translate(22.453125, 5)" text-anchor="middle" dominant-baseline="middle" alignment-baseline="middle" dy="1em"><g><rect class="background"></rect><text y="-10.1"><tspan dy="1.1em" y="-0.1em" x="0" class="text-outer-tspan"><tspan font-weight="normal" class="text-inner-tspan" font-style="normal">CLI</tspan></tspan></text></g></g></g><g transform="translate(458.4713775454046, 547.5686750887676)" class="mindmap-node section-0"><g><path d="M0 30.815624999999997 v-25.815624999999997 q0,-5 5,-5 h66.6953125 q5,0 5,5 v30.815624999999997 H0 Z" class="node-bkg node-no-border" id="node-3"></path><line y2="35.815625" x2="76.6953125" y1="35.815625" x1="0" class="node-line-0"></line></g><g transform="translate(38.34765625, 5)" text-anchor="middle" dominant-baseline="middle" alignment-baseline="middle" dy="1em"><g><rect class="background"></rect><text y="-10.1"><tspan dy="1.1em" y="-0.1em" x="0" class="text-outer-tspan"><tspan font-weight="normal" class="text-inner-tspan" font-style="normal">Serveur</tspan></tspan></text></g></g></g><g transform="translate(588.5386560053599, 565.7625704732027)" class="mindmap-node section-0"><g><path d="M0 30.815624999999997 v-25.815624999999997 q0,-5 5,-5 h68.8046875 q5,0 5,5 v30.815624999999997 H0 Z" class="node-bkg node-no-border" id="node-4"></path><line y2="35.815625" x2="78.8046875" y1="35.815625" x1="0" class="node-line-0"></line></g><g transform="translate(39.40234375, 5)" text-anchor="middle" dominant-baseline="middle" alignment-baseline="middle" dy="1em"><g><rect class="background"></rect><text y="-10.1"><tspan dy="1.1em" y="-0.1em" x="0" class="text-outer-tspan"><tspan font-weight="normal" class="text-inner-tspan" font-style="normal">Console</tspan></tspan></text></g></g></g><g transform="translate(665.820204030474, 495.0020217978026)" class="mindmap-node section-0"><g><path d="M0 30.815624999999997 v-25.815624999999997 q0,-5 5,-5 h63.15625 q5,0 5,5 v30.815624999999997 H0 Z" class="node-bkg node-no-border" id="node-5"></path><line y2="35.815625" x2="73.15625" y1="35.815625" x1="0" class="node-line-0"></line></g><g transform="translate(36.578125, 5)" text-anchor="middle" dominant-baseline="middle" alignment-baseline="middle" dy="1em"><g><rect class="background"></rect><text y="-10.1"><tspan dy="1.1em" y="-0.1em" x="0" class="text-outer-tspan"><tspan font-weight="normal" class="text-inner-tspan" font-style="normal">"CLAP"</tspan></tspan></text></g></g></g><g transform="translate(609.2517830624548, 319.9248318629782)" class="mindmap-node section-1"><g><path d="M0 30.815624999999997 v-25.815624999999997 q0,-5 5,-5 h83.8125 q5,0 5,5 v30.815624999999997 H0 Z" class="node-bkg node-no-border" id="node-6"></path><line y2="35.815625" x2="93.8125" y1="35.815625" x1="0" class="node-line-1"></line></g><g transform="translate(46.90625, 5)" text-anchor="middle" dominant-baseline="middle" alignment-baseline="middle" dy="1em"><g><rect class="background"></rect><text y="-10.1"><tspan dy="1.1em" y="-0.1em" x="0" class="text-outer-tspan"><tspan font-weight="normal" class="text-inner-tspan" font-style="normal">SurrealDB</tspan></tspan></text></g></g></g><g transform="translate(722.0630709804101, 368.21573368743543)" class="mindmap-node section-1"><g><path d="M0 30.815624999999997 v-25.815624999999997 q0,-5 5,-5 h187.09375 q5,0 5,5 v30.815624999999997 H0 Z" class="node-bkg node-no-border" id="node-7"></path><line y2="35.815625" x2="197.09375" y1="35.815625" x1="0" class="node-line-1"></line></g><g transform="translate(98.546875, 5)" text-anchor="middle" dominant-baseline="middle" alignment-baseline="middle" dy="1em"><g><rect class="background"></rect><text y="-10.1"><tspan dy="1.1em" y="-0.1em" x="0" class="text-outer-tspan"><tspan font-weight="normal" class="text-inner-tspan" font-style="normal">Lancer un serveur à côté</tspan></tspan></text></g></g></g><g transform="translate(611.768321094176, 411.18928878797965)" class="mindmap-node section-1"><g><path d="M0 30.815624999999997 v-25.815624999999997 q0,-5 5,-5 h85.390625 q5,0 5,5 v30.815624999999997 H0 Z" class="node-bkg node-no-border" id="node-8"></path><line y2="35.815625" x2="95.390625" y1="35.815625" x1="0" class="node-line-1"></line></g><g transform="translate(47.6953125, 5)" text-anchor="middle" dominant-baseline="middle" alignment-baseline="middle" dy="1em"><g><rect class="background"></rect><text y="-10.1"><tspan dy="1.1em" y="-0.1em" x="0" class="text-outer-tspan"><tspan font-weight="normal" class="text-inner-tspan" font-style="normal">Conteneur</tspan></tspan></text></g></g></g><g transform="translate(760.0601880048088, 282.8572644527476)" class="mindmap-node section-1"><g><path d="M0 30.815624999999997 v-25.815624999999997 q0,-5 5,-5 h160.3125 q5,0 5,5 v30.815624999999997 H0 Z" class="node-bkg node-no-border" id="node-9"></path><line y2="35.815625" x2="170.3125" y1="35.815625" x1="0" class="node-line-1"></line></g><g transform="translate(85.15625, 5)" text-anchor="middle" dominant-baseline="middle" alignment-baseline="middle" dy="1em"><g><rect class="background"></rect><text y="-10.1"><tspan dy="1.1em" y="-0.1em" x="0" class="text-outer-tspan"><tspan font-weight="normal" class="text-inner-tspan" font-style="normal">Gestion des modèles</tspan></tspan></text></g></g></g><g transform="translate(575.9586083009723, 240.1961317562402)" class="mindmap-node section-2"><g><path d="M0 30.815624999999997 v-25.815624999999997 q0,-5 5,-5 h112.25 q5,0 5,5 v30.815624999999997 H0 Z" class="node-bkg node-no-border" id="node-10"></path><line y2="35.815625" x2="122.25" y1="35.815625" x1="0" class="node-line-2"></line></g><g transform="translate(61.125, 5)" text-anchor="middle" dominant-baseline="middle" alignment-baseline="middle" dy="1em"><g><rect class="background"></rect><text y="-10.1"><tspan dy="1.1em" y="-0.1em" x="0" class="text-outer-tspan"><tspan font-weight="normal" class="text-inner-tspan" font-style="normal">Serveur HTTP</tspan></tspan></text></g></g></g><g transform="translate(748.2275833390057, 194.20736488107605)" class="mindmap-node section-2"><g><path d="M0 30.815624999999997 v-25.815624999999997 q0,-5 5,-5 h71.15625 q5,0 5,5 v30.815624999999997 H0 Z" class="node-bkg node-no-border" id="node-11"></path><line y2="35.815625" x2="81.15625" y1="35.815625" x1="0" class="node-line-2"></line></g><g transform="translate(40.578125, 5)" text-anchor="middle" dominant-baseline="middle" alignment-baseline="middle" dy="1em"><g><rect class="background"></rect><text y="-10.1"><tspan dy="1.1em" y="-0.1em" x="0" class="text-outer-tspan"><tspan font-weight="normal" class="text-inner-tspan" font-style="normal">"Rocket"</tspan></tspan></text></g></g></g><g transform="translate(305.4546417123554, 366.71844794599974)" class="mindmap-node section-3"><g><path d="M0 48.41562347412109 v-43.41562347412109 q0,-5 5,-5 h155.5234375 q5,0 5,5 v48.41562347412109 H0 Z" class="node-bkg node-no-border" id="node-12"></path><line y2="53.41562347412109" x2="165.5234375" y1="53.41562347412109" x1="0" class="node-line-3"></line></g><g transform="translate(82.76171875, 5)" text-anchor="middle" dominant-baseline="middle" alignment-baseline="middle" dy="1em"><g><rect class="background"></rect><text y="-10.1"><tspan dy="1.1em" y="-0.1em" x="0" class="text-outer-tspan"><tspan font-weight="normal" class="text-inner-tspan" font-style="normal">Sous domaine + site</tspan></tspan><tspan dy="1.1em" y="1em" x="0" class="text-outer-tspan"><tspan font-weight="normal" class="text-inner-tspan" font-style="normal">statique</tspan></tspan></text></g></g></g><g transform="translate(277.3437523600725, 473.5876315144203)" class="mindmap-node section-3"><g><path d="M0 30.815624999999997 v-25.815624999999997 q0,-5 5,-5 h201.1875 q5,0 5,5 v30.815624999999997 H0 Z" class="node-bkg node-no-border" id="node-13"></path><line y2="35.815625" x2="211.1875" y1="35.815625" x1="0" class="node-line-3"></line></g><g transform="translate(105.59375, 5)" text-anchor="middle" dominant-baseline="middle" alignment-baseline="middle" dy="1em"><g><rect class="background"></rect><text y="-10.1"><tspan dy="1.1em" y="-0.1em" x="0" class="text-outer-tspan"><tspan font-weight="normal" class="text-inner-tspan" font-style="normal">Préciser la racine des sites</tspan></tspan></text></g></g></g><g transform="translate(77.82792958566688, 419.53397093953345)" class="mindmap-node section-3"><g><path d="M0 48.41562347412109 v-43.41562347412109 q0,-5 5,-5 h160.671875 q5,0 5,5 v48.41562347412109 H0 Z" class="node-bkg node-no-border" id="node-14"></path><line y2="53.41562347412109" x2="170.671875" y1="53.41562347412109" x1="0" class="node-line-3"></line></g><g transform="translate(85.3359375, 5)" text-anchor="middle" dominant-baseline="middle" alignment-baseline="middle" dy="1em"><g><rect class="background"></rect><text y="-10.1"><tspan dy="1.1em" y="-0.1em" x="0" class="text-outer-tspan"><tspan font-weight="normal" class="text-inner-tspan" font-style="normal">Sécuriser l'accès aux</tspan></tspan><tspan dy="1.1em" y="1em" x="0" class="text-outer-tspan"><tspan font-weight="normal" class="text-inner-tspan" font-style="normal">fichiers</tspan></tspan></text></g></g></g><g transform="translate(55.96222366066024, 520.048098518683)" class="mindmap-node section-3"><g><path d="M0 30.815624999999997 v-25.815624999999997 q0,-5 5,-5 h106.03125 q5,0 5,5 v30.815624999999997 H0 Z" class="node-bkg node-no-border" id="node-15"></path><line y2="35.815625" x2="116.03125" y1="35.815625" x1="0" class="node-line-3"></line></g><g transform="translate(58.015625, 5)" text-anchor="middle" dominant-baseline="middle" alignment-baseline="middle" dy="1em"><g><rect class="background"></rect><text y="-10.1"><tspan dy="1.1em" y="-0.1em" x="0" class="text-outer-tspan"><tspan font-weight="normal" class="text-inner-tspan" font-style="normal">Statuts HTTP</tspan></tspan></text></g></g></g><g transform="translate(263.1572583769391, 267.26906952034665)" class="mindmap-node section-4"><g><path d="M0 30.815624999999997 v-25.815624999999997 q0,-5 5,-5 h117.640625 q5,0 5,5 v30.815624999999997 H0 Z" class="node-bkg node-no-border" id="node-16"></path><line y2="35.815625" x2="127.640625" y1="35.815625" x1="0" class="node-line-4"></line></g><g transform="translate(63.8203125, 5)" text-anchor="middle" dominant-baseline="middle" alignment-baseline="middle" dy="1em"><g><rect class="background"></rect><text y="-10.1"><tspan dy="1.1em" y="-0.1em" x="0" class="text-outer-tspan"><tspan font-weight="normal" class="text-inner-tspan" font-style="normal">authentification</tspan></tspan></text></g></g></g><g transform="translate(160.85778734165592, 198.1607618077137)" class="mindmap-node section-4"><g><path d="M0 30.815624999999997 v-25.815624999999997 q0,-5 5,-5 h135.859375 q5,0 5,5 v30.815624999999997 H0 Z" class="node-bkg node-no-border" id="node-17"></path><line y2="35.815625" x2="145.859375" y1="35.815625" x1="0" class="node-line-4"></line></g><g transform="translate(72.9296875, 5)" text-anchor="middle" dominant-baseline="middle" alignment-baseline="middle" dy="1em"><g><rect class="background"></rect><text y="-10.1"><tspan dy="1.1em" y="-0.1em" x="0" class="text-outer-tspan"><tspan font-weight="normal" class="text-inner-tspan" font-style="normal">Login + password</tspan></tspan></text></g></g></g><g transform="translate(182.16158197352638, 330.8960451525006)" class="mindmap-node section-4"><g><path d="M0 30.815624999999997 v-25.815624999999997 q0,-5 5,-5 h72.28125 q5,0 5,5 v30.815624999999997 H0 Z" class="node-bkg node-no-border" id="node-18"></path><line y2="35.815625" x2="82.28125" y1="35.815625" x1="0" class="node-line-4"></line></g><g transform="translate(41.140625, 5)" text-anchor="middle" dominant-baseline="middle" alignment-baseline="middle" dy="1em"><g><rect class="background"></rect><text y="-10.1"><tspan dy="1.1em" y="-0.1em" x="0" class="text-outer-tspan"><tspan font-weight="normal" class="text-inner-tspan" font-style="normal">argon2id</tspan></tspan></text></g></g></g><g transform="translate(15, 254.57777633766975)" class="mindmap-node section-4"><g><path d="M0 48.41562347412109 v-43.41562347412109 q0,-5 5,-5 h176.4296875 q5,0 5,5 v48.41562347412109 H0 Z" class="node-bkg node-no-border" id="node-19"></path><line y2="53.41562347412109" x2="186.4296875" y1="53.41562347412109" x1="0" class="node-line-4"></line></g><g transform="translate(93.21484375, 5)" text-anchor="middle" dominant-baseline="middle" alignment-baseline="middle" dy="1em"><g><rect class="background"></rect><text y="-10.1"><tspan dy="1.1em" y="-0.1em" x="0" class="text-outer-tspan"><tspan font-weight="normal" class="text-inner-tspan" font-style="normal">poser un cookie pour le</tspan></tspan><tspan dy="1.1em" y="1em" x="0" class="text-outer-tspan"><tspan font-weight="normal" class="text-inner-tspan" font-style="normal">subdomain</tspan></tspan></text></g></g></g><g transform="translate(485.94286114247905, 198.6825315336149)" class="mindmap-node section-5"><g><path d="M0 30.815624999999997 v-25.815624999999997 q0,-5 5,-5 h35.796875 q5,0 5,5 v30.815624999999997 H0 Z" class="node-bkg node-no-border" id="node-20"></path><line y2="35.815625" x2="45.796875" y1="35.815625" x1="0" class="node-line-5"></line></g><g transform="translate(22.8984375, 5)" text-anchor="middle" dominant-baseline="middle" alignment-baseline="middle" dy="1em"><g><rect class="background"></rect><text y="-10.1"><tspan dy="1.1em" y="-0.1em" x="0" class="text-outer-tspan"><tspan font-weight="normal" class="text-inner-tspan" font-style="normal">API</tspan></tspan></text></g></g></g><g transform="translate(473.6514549632467, 104.10947789978616)" class="mindmap-node section-5"><g><path d="M0 30.815624999999997 v-25.815624999999997 q0,-5 5,-5 h68.796875 q5,0 5,5 v30.815624999999997 H0 Z" class="node-bkg node-no-border" id="node-21"></path><line y2="35.815625" x2="78.796875" y1="35.815625" x1="0" class="node-line-5"></line></g><g transform="translate(39.3984375, 5)" text-anchor="middle" dominant-baseline="middle" alignment-baseline="middle" dy="1em"><g><rect class="background"></rect><text y="-10.1"><tspan dy="1.1em" y="-0.1em" x="0" class="text-outer-tspan"><tspan font-weight="normal" class="text-inner-tspan" font-style="normal">Sécurité</tspan></tspan></text></g></g></g><g transform="translate(430.26730015169676, 15)" class="mindmap-node section-5"><g><path d="M0 30.815624999999997 v-25.815624999999997 q0,-5 5,-5 h123.0625 q5,0 5,5 v30.815624999999997 H0 Z" class="node-bkg node-no-border" id="node-22"></path><line y2="35.815625" x2="133.0625" y1="35.815625" x1="0" class="node-line-5"></line></g><g transform="translate(66.53125, 5)" text-anchor="middle" dominant-baseline="middle" alignment-baseline="middle" dy="1em"><g><rect class="background"></rect><text y="-10.1"><tspan dy="1.1em" y="-0.1em" x="0" class="text-outer-tspan"><tspan font-weight="normal" class="text-inner-tspan" font-style="normal">header avec clé</tspan></tspan></text></g></g></g><g transform="translate(586.4655842086589, 155.60145040171244)" class="mindmap-node section-5"><g><path d="M0 30.815624999999997 v-25.815624999999997 q0,-5 5,-5 h61.2265625 q5,0 5,5 v30.815624999999997 H0 Z" class="node-bkg node-no-border" id="node-23"></path><line y2="35.815625" x2="71.2265625" y1="35.815625" x1="0" class="node-line-5"></line></g><g transform="translate(35.61328125, 5)" text-anchor="middle" dominant-baseline="middle" alignment-baseline="middle" dy="1em"><g><rect class="background"></rect><text y="-10.1"><tspan dy="1.1em" y="-0.1em" x="0" class="text-outer-tspan"><tspan font-weight="normal" class="text-inner-tspan" font-style="normal">Format</tspan></tspan></text></g></g></g><g transform="translate(662.5852141117526, 80.76619654299498)" class="mindmap-node section-5"><g><path d="M0 30.815624999999997 v-25.815624999999997 q0,-5 5,-5 h52.8984375 q5,0 5,5 v30.815624999999997 H0 Z" class="node-bkg node-no-border" id="node-24"></path><line y2="35.815625" x2="62.8984375" y1="35.815625" x1="0" class="node-line-5"></line></g><g transform="translate(31.44921875, 5)" text-anchor="middle" dominant-baseline="middle" alignment-baseline="middle" dy="1em"><g><rect class="background"></rect><text y="-10.1"><tspan dy="1.1em" y="-0.1em" x="0" class="text-outer-tspan"><tspan font-weight="normal" class="text-inner-tspan" font-style="normal">REST</tspan></tspan></text></g></g></g><g transform="translate(778.3539492727851, 59.01107574945673)" class="mindmap-node section-5"><g><path d="M0 30.815624999999997 v-25.815624999999997 q0,-5 5,-5 h52.671875 q5,0 5,5 v30.815624999999997 H0 Z" class="node-bkg node-no-border" id="node-25"></path><line y2="35.815625" x2="62.671875" y1="35.815625" x1="0" class="node-line-5"></line></g><g transform="translate(31.3359375, 5)" text-anchor="middle" dominant-baseline="middle" alignment-baseline="middle" dy="1em"><g><rect class="background"></rect><text y="-10.1"><tspan dy="1.1em" y="-0.1em" x="0" class="text-outer-tspan"><tspan font-weight="normal" class="text-inner-tspan" font-style="normal">JSON</tspan></tspan></text></g></g></g><g transform="translate(297.5077691606389, 151.1171192704968)" class="mindmap-node section-5"><g><path d="M0 30.815624999999997 v-25.815624999999997 q0,-5 5,-5 h177.21875 q5,0 5,5 v30.815624999999997 H0 Z" class="node-bkg node-no-border" id="node-26"></path><line y2="35.815625" x2="187.21875" y1="35.815625" x1="0" class="node-line-5"></line></g><g transform="translate(93.609375, 5)" text-anchor="middle" dominant-baseline="middle" alignment-baseline="middle" dy="1em"><g><rect class="background"></rect><text y="-10.1"><tspan dy="1.1em" y="-0.1em" x="0" class="text-outer-tspan"><tspan font-weight="normal" class="text-inner-tspan" font-style="normal">Manipulation des accès</tspan></tspan></text></g></g></g></g></svg>